<?xml version="1.0" encoding="utf-8"?>
<!-- Generator: Adobe Illustrator 26.1.0, SVG Export Plug-In . SVG Version: 6.00 Build 0)  -->
<svg version="1.1" id="Layer_1" xmlns="http://www.w3.org/2000/svg" xmlns:xlink="http://www.w3.org/1999/xlink" x="0px" y="0px"
	 viewBox="0 0 53 54.4" style="enable-background:new 0 0 53 54.4;" xml:space="preserve">
<g>
	<path d="M11.2,50c-3.7,0-6.7-3-6.7-6.7V11.9c0-3.7,3-6.7,6.7-6.7h8.4v2.1h-8.4c-2.5,0-4.6,2.1-4.6,4.6v31.4c0,2.5,2.1,4.6,4.6,4.6
		l8.4-0.1l0,2.1L11.2,50z"/>
</g>
<g>
	<path d="M41.9,50h-8.4v-2.1h8.4c2.5,0,4.6-2.1,4.6-4.6V11.9c0-2.5-2.1-4.6-4.6-4.6l-8.4,0.1l0-2.1l8.4-0.1c3.7,0,6.7,3,6.7,6.7
		v31.4C48.6,47,45.6,50,41.9,50z"/>
</g>
<g>
	<path d="M13,39.7l24.8-24.8c0.4-0.4,0.1-1-0.4-1H19.9c-0.5,0-0.7,0.6-0.4,1l5.4,5.4c0.2,0.2,0.2,0.6,0,0.8L9.6,36.3
		c-0.2,0.2-0.2,0.6,0,0.8l2.6,2.6C12.4,39.9,12.8,39.9,13,39.7z"/>
	<path d="M12.6,40.2c-0.2,0-0.5-0.1-0.6-0.3l-2.6-2.6c-0.2-0.2-0.3-0.4-0.3-0.6c0-0.2,0.1-0.5,0.3-0.6l15.3-15.3
		c0.1-0.1,0.1-0.2,0-0.3l-5.4-5.4c-0.3-0.3-0.3-0.6-0.2-1s0.5-0.6,0.8-0.6h17.6c0.4,0,0.7,0.2,0.8,0.6s0.1,0.7-0.2,1L13.3,39.9
		C13.1,40.1,12.9,40.2,12.6,40.2z M12.8,39.4l0.2,0.2L12.8,39.4l24.8-24.8c0.1-0.1,0.1-0.2,0-0.2c0,0-0.1-0.1-0.2-0.1H19.9
		c-0.1,0-0.2,0.1-0.2,0.1s0,0.1,0,0.2l5.4,5.4c0.4,0.4,0.4,0.9,0,1.3L9.9,36.5c0,0-0.1,0.1-0.1,0.1c0,0.1,0,0.1,0.1,0.1l2.6,2.6
		C12.6,39.5,12.7,39.5,12.8,39.4z"/>
</g>
<g>
	<path d="M40,17L15.2,41.8c-0.4,0.4-0.1,1,0.4,1h17.6c0.5,0,0.7-0.6,0.4-1l-5.4-5.4c-0.2-0.2-0.2-0.6,0-0.8l15.3-15.3
		c0.2-0.2,0.2-0.6,0-0.8L40.8,17C40.6,16.8,40.2,16.8,40,17z"/>
	<path d="M33.2,43.1H15.6c-0.4,0-0.7-0.2-0.8-0.6c-0.1-0.3-0.1-0.7,0.2-1l24.8-24.8c0.3-0.3,0.9-0.3,1.3,0l2.6,2.6
		c0.2,0.2,0.3,0.4,0.3,0.6c0,0.2-0.1,0.5-0.3,0.6L28.4,35.9c-0.1,0.1-0.1,0.2,0,0.3l5.4,5.4c0.3,0.3,0.3,0.6,0.2,1
		C33.9,42.9,33.5,43.1,33.2,43.1z M40.4,17.2c-0.1,0-0.1,0-0.1,0.1L15.4,42.1c-0.1,0.1-0.1,0.2,0,0.2c0,0,0.1,0.1,0.2,0.1h17.6
		c0.1,0,0.2-0.1,0.2-0.1c0,0,0-0.1,0-0.2l-5.4-5.4c-0.4-0.4-0.4-0.9,0-1.3l15.3-15.3c0.1-0.1,0.1-0.2,0-0.3l-2.6-2.6
		C40.5,17.2,40.5,17.2,40.4,17.2z"/>
</g>
</svg>
