<svg id="Layer_1" data-name="Layer 1" xmlns="http://www.w3.org/2000/svg" xmlns:xlink="http://www.w3.org/1999/xlink" width="17mm" height="17mm" viewBox="0 0 48.19 48.19">
  <defs>
    <style>
      .cls-1 {
        fill: none;
      }

      .cls-2 {
        clip-path: url(#clip-path);
      }

      .cls-3 {
        fill: url(#linear-gradient);
      }
    </style>
    <clipPath id="clip-path">
      <path class="cls-1" d="M8.74,46.48A6.7,6.7,0,0,1,2,39.79V8.4A6.7,6.7,0,0,1,8.73,1.71H17.1V3.8H8.73a4.6,4.6,0,0,0-4.6,4.6V39.79a4.6,4.6,0,0,0,4.6,4.6l8.35-.13,0,2.09Zm37.41-6.69V8.4a6.7,6.7,0,0,0-6.7-6.69l-8.37.13,0,2.09,8.35-.13a4.6,4.6,0,0,1,4.6,4.6V39.79a4.6,4.6,0,0,1-4.6,4.6H31.09v2.09h8.37A6.7,6.7,0,0,0,46.15,39.79ZM10.59,36.15,35.42,11.32a.56.56,0,0,0-.4-1H17.45a.56.56,0,0,0-.39,1l5.41,5.41a.56.56,0,0,1,0,.78L7.21,32.77a.56.56,0,0,0,0,.79L9.8,36.15A.56.56,0,0,0,10.59,36.15Zm.25.24L35.66,11.56a.89.89,0,0,0,.2-1A.9.9,0,0,0,35,10H17.45a.91.91,0,0,0-.84.56.9.9,0,0,0,.2,1L22.22,17a.22.22,0,0,1,0,.3L7,32.52a.9.9,0,0,0-.26.64A.88.88,0,0,0,7,33.8l2.59,2.59a.91.91,0,0,0,1.29,0Zm-.79-.49L7.46,33.31a.2.2,0,0,1-.06-.15A.2.2,0,0,1,7.46,33L22.71,17.76a.89.89,0,0,0,0-1.28L17.3,11.07a.19.19,0,0,1,0-.23.2.2,0,0,1,.19-.13H35a.21.21,0,0,1,.2.13.22.22,0,0,1,0,.23L10.34,35.9l.25.25-.25-.25A.21.21,0,0,1,10.05,35.9ZM37.6,13.49,12.77,38.32a.56.56,0,0,0,.39,1H30.74a.56.56,0,0,0,.39-1l-5.41-5.41a.56.56,0,0,1,0-.79L41,16.87a.57.57,0,0,0,0-.79l-2.59-2.59A.57.57,0,0,0,37.6,13.49Zm-6,25.58a.91.91,0,0,0-.19-1L26,32.67a.2.2,0,0,1,0-.3L41.22,17.12a.89.89,0,0,0,0-1.28l-2.59-2.59a.93.93,0,0,0-1.28,0L12.52,38.08a.89.89,0,0,0-.19,1,.9.9,0,0,0,.83.56H30.74A.9.9,0,0,0,31.57,39.07Zm6.57-25.33,2.59,2.59a.22.22,0,0,1,0,.3L25.47,31.88a.91.91,0,0,0,0,1.28l5.41,5.41a.2.2,0,0,1,.05.23.21.21,0,0,1-.19.13H13.16A.21.21,0,0,1,13,38.8a.2.2,0,0,1,0-.23L37.84,13.74a.22.22,0,0,1,.15-.06A.2.2,0,0,1,38.14,13.74Z"/>
    </clipPath>
    <linearGradient id="linear-gradient" x1="55.71" y1="23.43" x2="-8.67" y2="23.43" gradientUnits="userSpaceOnUse">
      <stop offset="0" stop-color="#d8e372"/>
      <stop offset="0.37" stop-color="#86c664"/>
      <stop offset="1" stop-color="#72c9bc"/>
    </linearGradient>
  </defs>
  <g class="cls-2">
    <rect class="cls-3" x="-8.67" y="-5.43" width="64.38" height="57.71"/>
  </g>
</svg>
